PathFileType	4	(X/Y/Z)	E:\Qualisys_Data\Carbon_Farble_Plate\Data\Amateur_Runner\S14\T1\S14T1V23_c3d.trc
DataRate	CameraRate	NumFrames	NumMarkers	Units	OrigDataRate	OrigDataStartFrame	OrigNumFrames
200.000000	200.000000	4	39	mm	200.000000	154	308
Frame#	Time	LSHO			RSHO			LICST			RICST			LASIS			LHEEL			RASIS			LTROC			RTROC			SACR			LTH1			LSK4			LTH2			LTH3			RHM5			LSK2			LTH4			RTH1			LTOE			RTH2			RTH3			RTH4			LLEP			RLEP			LSK1			LSK3			RSK1			LHM5			RSK2			LFT1			RSK3			RSK4			LLME			RLME			RTOE			RHEEL			RFT1			RFT2			LFT2			
		X1	Y1	Z1	X2	Y2	Z2	X3	Y3	Z3	X4	Y4	Z4	X5	Y5	Z5	X6	Y6	Z6	X7	Y7	Z7	X8	Y8	Z8	X9	Y9	Z9	X10	Y10	Z10	X11	Y11	Z11	X12	Y12	Z12	X13	Y13	Z13	X14	Y14	Z14	X15	Y15	Z15	X16	Y16	Z16	X17	Y17	Z17	X18	Y18	Z18	X19	Y19	Z19	X20	Y20	Z20	X21	Y21	Z21	X22	Y22	Z22	X23	Y23	Z23	X24	Y24	Z24	X25	Y25	Z25	X26	Y26	Z26	X27	Y27	Z27	X28	Y28	Z28	X29	Y29	Z29	X30	Y30	Z30	X31	Y31	Z31	X32	Y32	Z32	X33	Y33	Z33	X34	Y34	Z34	X35	Y35	Z35	X36	Y36	Z36	X37	Y37	Z37	X38	Y38	Z38	X39	Y39	Z39	

155	0.77	175.1022033691406	1427.535522460938	-462.8668518066406	123.0027618408203	1436.50830078125	-172.5351257324219	114.0315246582031	981.6629638671876	-447.4954528808594	129.8092498779297	983.39599609375	-174.5723419189453	148.1428833007812	928.4608154296876	-423.866943359375	-453.4097595214844	517.5810546875	-305.0326538085938	155.8777313232422	940.7315673828124	-195.473388671875	-14.66426181793213	878.9690551757812	-466.155029296875	18.87496757507324	885.6272583007812	-139.4575347900391	-17.24175453186035	989.875	-313.8617248535156	2.524338483810425	645.8010864257812	-474.8888549804688	-287.8186950683594	527.12451171875	-409.1838989257812	-69.86968231201172	667.0610961914062	-445.3477478027344	-17.15173721313477	548.6137084960938	-458.7877197265625	473.3203735351562	117.7722396850586	-170.2869720458984	-193.7615356445312	539.6221923828125	-438.8837280273438	-91.31856536865234	571.8896484375	-433.0254821777344	225.9548950195312	689.3607788085938	-142.9180145263672	-539.8875122070312	280.4139709472656	-363.0870666503906	153.0926666259766	658.047119140625	-133.5327758789062	265.0633850097656	602.3742065429688	-176.9141235351562	190.4258880615234	565.9496459960938	-158.3263702392578	-75.90532684326172	502.1420288085938	-450.3880310058594	241.1356353759766	511.1851196289062	-168.0846252441406	-183.0886993408203	457.4934692382812	-442.2065734863281	-281.8799438476562	447.0424194335938	-417.4322814941406	295.7993774414062	400.2118530273438	-164.9701843261719	-547.420166015625	361.0907287597656	-405.6259460449219	213.5475006103516	376.0907592773438	-167.6294250488281	-472.7824401855469	505.2961730957031	-273.3032836914062	318.8246154785156	299.6282043457031	-178.6254577636719	241.2759704589844	283.9371948242188	-180.6751098632812	-452.703857421875	474.4598693847656	-374.5938415527344	329.3045959472656	118.6638946533203	-201.4642181396484	531.6586303710938	169.3462066650391	-226.4101257324219	293.3248901367188	68.51410675048828	-258.2626953125	320.7174987792969	52.65766906738281	-289.605224609375	305.6195678710938	44.81128311157227	-234.0667266845703	-483.5011596679688	528.6298217773438	-323.646484375
156	0.775	194.4182586669922	1423.156494140625	-462.084228515625	143.3890533447266	1431.345947265625	-171.3245391845703	133.3984375	977.4228515625	-447.5242309570312	148.7686309814453	979.16748046875	-174.3446197509766	168.0558776855469	924.5029296875	-423.9145812988281	-424.4782104492188	522.4305419921875	-303.8914489746094	175.2255096435547	936.8363037109376	-194.8010406494141	5.896133422851562	873.0534057617188	-467.0667419433594	37.02945709228516	881.3612670898438	-140.2817230224609	2.032239198684692	985.396484375	-314.6930236816406	26.62264633178711	640.234130859375	-475.4674377441406	-259.3219604492188	526.21044921875	-409.4920349121094	-46.44900512695312	660.0032958984375	-446.533447265625	8.553424835205078	542.080078125	-459.7828979492188	485.6644287109375	109.8237686157227	-172.6200866699219	-164.9085235595703	535.7643432617188	-439.7956848144531	-66.02106475830078	564.2278442382812	-434.3042602539062	245.08447265625	685.2595825195312	-142.6089782714844	-516.8001098632812	287.4981079101562	-362.6658020019531	172.6892395019531	654.6803588867188	-135.5113677978516	285.98046875	598.71728515625	-176.4784545898438	210.2745056152344	562.6749267578125	-159.7226715087891	-49.0838623046875	495.3468017578125	-451.8899536132812	260.8619079589844	507.2651062011719	-168.9167938232422	-156.8948516845703	453.5188903808594	-442.5326843261719	-255.6627349853516	445.9108581542969	-416.7317810058594	313.7251281738281	394.5412292480469	-166.1365356445312	-522.308837890625	367.5497131347656	-405.2236328125	231.2502899169922	372.0199279785156	-168.4345092773438	-444.3373718261719	509.7521362304688	-272.2969665527344	334.8745422363281	294.4259948730469	-179.3824157714844	257.1220397949219	279.6851501464844	-181.8042755126953	-424.8707580566406	478.9266052246094	-373.5374450683594	341.0785827636719	113.2751388549805	-203.4988098144531	544.5392456054688	160.5269775390625	-229.1539306640625	304.494140625	65.16132354736328	-258.0763549804688	331.4851379394531	48.50259780883789	-291.0424499511719	316.59619140625	40.8812255859375	-236.0222625732422	-454.1587524414062	534.0875244140625	-322.3286743164062
157	0.78	213.6533355712891	1418.82763671875	-461.4505310058594	163.9898986816406	1425.878784179688	-170.50146484375	153.1516265869141	973.0040893554688	-447.6890869140625	167.9436340332031	974.9524536132812	-173.9473876953125	187.6153411865234	920.2819213867188	-423.7942810058594	-395.0935668945312	526.8567504882812	-302.6111450195312	194.5243988037109	933.1310424804688	-194.4897613525391	26.42125701904297	867.302490234375	-467.7203063964844	55.28504180908203	876.7346801757812	-141.7678070068359	21.68170928955078	980.5177612304688	-315.3987426757812	51.10455322265625	633.8967895507812	-476.2509460449219	-230.6030731201172	524.9305419921875	-410.2049865722656	-22.9052677154541	652.2246704101562	-447.9892883300781	34.39745330810547	535.6861572265625	-460.9501953125	496.1078491210938	100.3153839111328	-175.2727966308594	-136.172119140625	531.6373901367188	-440.5958251953125	-40.76560592651367	556.3328247070312	-435.7253723144531	265.2081298828125	681.1913452148438	-141.5838012695312	-492.4032897949219	294.3594055175781	-362.2919616699219	192.5770721435547	651.2098999023438	-137.0611114501953	306.6502685546875	595.0347900390625	-175.6255950927734	230.2874298095703	558.9181518554688	-161.1703033447266	-22.16900825500488	487.8271484375	-453.1789245605469	280.5869140625	503.305419921875	-169.2338104248047	-130.1714630126953	449.4175415039062	-443.1700439453125	-229.0617370605469	444.6187744140625	-416.6287231445312	331.08984375	388.9627990722656	-166.7060394287109	-496.7561340332031	375.2068481445312	-404.6785888671875	248.0787811279297	368.1343078613281	-168.9089202880859	-415.1640930175781	514.4263305664062	-271.0429992675781	350.3339538574219	288.1723327636719	-181.0318145751953	271.9988403320312	275.0859069824219	-182.8203125	-396.8282470703125	483.4920654296875	-373.1415710449219	353.5144958496094	108.3388061523438	-204.9359741210938	557.0122680664062	148.1431732177734	-232.8870391845703	314.4098510742188	65.92584991455078	-260.8196411132812	338.4513854980469	46.52996444702148	-292.6932373046875	322.1486206054688	43.5112419128418	-235.0754241943359	-424.3829040527344	539.0824584960938	-321.2447814941406
158	0.785	232.9121856689453	1414.176391601562	-460.7590026855469	184.7745819091797	1420.235107421875	-169.2004241943359	172.5335540771484	968.476806640625	-447.7650451660156	186.5024566650391	970.3660888671876	-173.6854248046875	207.5895080566406	915.7913818359376	-423.942626953125	-364.9609375	530.2916259765625	-301.2355651855469	214.0009460449219	928.7828369140624	-193.6071166992188	47.02419662475586	861.1214599609375	-468.2964477539062	73.44892120361328	872.0643920898438	-143.0871276855469	41.09317779541016	975.727294921875	-316.5180358886719	75.45585632324219	627.5413208007812	-477.0787048339844	-201.2455444335938	523.3517456054688	-410.4954223632812	1.172839164733887	644.4415283203125	-449.1161804199219	60.81149291992188	528.7041015625	-461.7243041992188	504.6384887695312	89.53485870361328	-178.7059326171875	-106.8630828857422	527.3466186523438	-441.6921997070312	-14.72920989990234	547.9253540039062	-436.9789733886719	285.34375	676.7440795898438	-141.1454010009766	-467.3350524902344	299.9847412109375	-362.3078308105469	212.8714904785156	647.6355590820312	-138.3894195556641	325.7222900390625	590.0210571289062	-175.4115753173828	250.7184448242188	555.52587890625	-162.09521484375	5.61316967010498	480.7229614257812	-454.5954284667969	300.2931823730469	498.7391052246094	-169.5253295898438	-103.0976943969727	444.8358459472656	-444.1692810058594	-201.8675384521484	442.6799926757812	-416.3286437988281	348.6728210449219	383.1993103027344	-167.9150085449219	-470.1512145996094	381.556396484375	-404.2120056152344	264.9567565917969	364.1454162597656	-169.0764465332031	-385.06640625	518.4208984375	-270.05078125	365.2811889648438	281.7847595214844	-182.7822723388672	286.9316711425781	270.7417602539062	-183.3427734375	-367.5322875976562	487.1327209472656	-372.0127563476562	365.1255187988281	102.9555358886719	-206.9315338134766	568.674072265625	132.3953704833984	-236.1475524902344	322.0517272949219	68.3184585571289	-262.4100646972656	343.4844360351562	45.07453536987305	-293.7895812988281	327.7110900878906	46.00348663330078	-235.9483489990234	-394.2904968261719	543.2554321289062	-319.8652954101562
